<svg xmlns="http://www.w3.org/2000/svg" width="256" height="256" viewBox="0 0 256 256" shape-rendering="crispEdges">
  <rect width="256" height="256" fill="#ffffff"/>
  <rect x="152" y="32" width="32" height="8" fill="#f0af2e"/>
  <rect x="152" y="40" width="32" height="8" fill="#f0af2e"/>
  <rect x="152" y="48" width="32" height="8" fill="#f0af2e"/>
  <rect x="80" y="56" width="104" height="8" fill="#f0af2e"/>
  <rect x="72" y="64" width="24" height="8" fill="#b38325"/>
  <rect x="96" y="64" width="80" height="8" fill="#f0af2e"/>
  <rect x="64" y="72" width="40" height="8" fill="#b38325"/>
  <rect x="104" y="72" width="40" height="8" fill="#f0af2e"/>
  <rect x="144" y="72" width="16" height="8" fill="#423a29"/>
  <rect x="160" y="72" width="16" height="8" fill="#f0af2e"/>
  <rect x="64" y="80" width="8" height="8" fill="#b38325"/>
  <rect x="72" y="80" width="8" height="8" fill="#423a29"/>
  <rect x="80" y="80" width="8" height="8" fill="#b38325"/>
  <rect x="88" y="80" width="8" height="8" fill="#423a29"/>
  <rect x="96" y="80" width="8" height="8" fill="#b38325"/>
  <rect x="104" y="80" width="72" height="8" fill="#f0af2e"/>
  <rect x="64" y="88" width="16" height="8" fill="#b38325"/>
  <rect x="80" y="88" width="8" height="8" fill="#423a29"/>
  <rect x="88" y="88" width="16" height="8" fill="#b38325"/>
  <rect x="104" y="88" width="72" height="8" fill="#f0af2e"/>
  <rect x="64" y="96" width="16" height="8" fill="#b38325"/>
  <rect x="80" y="96" width="8" height="8" fill="#423a29"/>
  <rect x="88" y="96" width="16" height="8" fill="#b38325"/>
  <rect x="104" y="96" width="72" height="8" fill="#f0af2e"/>
  <rect x="64" y="104" width="16" height="8" fill="#b38325"/>
  <rect x="80" y="104" width="8" height="8" fill="#423a29"/>
  <rect x="88" y="104" width="16" height="8" fill="#b38325"/>
  <rect x="104" y="104" width="72" height="8" fill="#f0af2e"/>
  <rect x="72" y="112" width="24" height="8" fill="#b38325"/>
  <rect x="96" y="112" width="72" height="8" fill="#f0af2e"/>
  <rect x="128" y="120" width="40" height="8" fill="#f0af2e"/>
  <rect x="120" y="128" width="48" height="8" fill="#f0af2e"/>
  <rect x="128" y="136" width="40" height="8" fill="#f0af2e"/>
  <rect x="128" y="144" width="40" height="8" fill="#f0af2e"/>
  <rect x="112" y="152" width="56" height="8" fill="#f0af2e"/>
</svg>