<svg xmlns="http://www.w3.org/2000/svg" width="256" height="256" viewBox="0 0 256 256" shape-rendering="crispEdges">
  <rect width="256" height="256" fill="#ffffff"/>
  <rect x="112" y="24" width="8" height="8" fill="#f0b52e"/>
  <rect x="144" y="24" width="8" height="8" fill="#f0b52e"/>
  <rect x="112" y="32" width="16" height="8" fill="#f0b52e"/>
  <rect x="136" y="32" width="8" height="8" fill="#f0b52e"/>
  <rect x="144" y="32" width="16" height="8" fill="#f0af2e"/>
  <rect x="112" y="40" width="40" height="8" fill="#f0b52e"/>
  <rect x="152" y="40" width="8" height="8" fill="#f0af2e"/>
  <rect x="104" y="48" width="8" height="8" fill="#f0b52e"/>
  <rect x="112" y="48" width="8" height="8" fill="#080808"/>
  <rect x="120" y="48" width="8" height="8" fill="#ffffff"/>
  <rect x="128" y="48" width="8" height="8" fill="#f0b52e"/>
  <rect x="136" y="48" width="8" height="8" fill="#080808"/>
  <rect x="144" y="48" width="8" height="8" fill="#ffffff"/>
  <rect x="152" y="48" width="8" height="8" fill="#f0af2e"/>
  <rect x="104" y="56" width="48" height="8" fill="#f0b52e"/>
  <rect x="152" y="56" width="8" height="8" fill="#f0af2e"/>
  <rect x="96" y="64" width="56" height="8" fill="#f0b52e"/>
  <rect x="152" y="64" width="8" height="8" fill="#f0af2e"/>
  <rect x="96" y="72" width="56" height="8" fill="#f0b52e"/>
  <rect x="152" y="72" width="8" height="8" fill="#f0af2e"/>
  <rect x="88" y="80" width="8" height="8" fill="#8a7033"/>
  <rect x="96" y="80" width="24" height="8" fill="#b08520"/>
  <rect x="120" y="80" width="32" height="8" fill="#f0b52e"/>
  <rect x="152" y="80" width="8" height="8" fill="#f0af2e"/>
  <rect x="80" y="88" width="48" height="8" fill="#8a7033"/>
  <rect x="128" y="88" width="8" height="8" fill="#b08520"/>
  <rect x="136" y="88" width="8" height="8" fill="#f0b52e"/>
  <rect x="144" y="88" width="16" height="8" fill="#f0af2e"/>
  <rect x="80" y="96" width="16" height="8" fill="#8a7033"/>
  <rect x="96" y="96" width="8" height="8" fill="#080808"/>
  <rect x="104" y="96" width="8" height="8" fill="#b08520"/>
  <rect x="112" y="96" width="8" height="8" fill="#080808"/>
  <rect x="120" y="96" width="16" height="8" fill="#8a7033"/>
  <rect x="136" y="96" width="16" height="8" fill="#f0af2e"/>
  <rect x="88" y="104" width="40" height="8" fill="#8a7033"/>
  <rect x="128" y="104" width="40" height="8" fill="#f0af2e"/>
  <rect x="104" y="112" width="8" height="8" fill="#f0af2e"/>
  <rect x="120" y="112" width="48" height="8" fill="#f0af2e"/>
  <rect x="104" y="120" width="56" height="8" fill="#f0af2e"/>
  <rect x="120" y="128" width="32" height="8" fill="#f0af2e"/>
  <rect x="120" y="136" width="8" height="8" fill="#f0af2e"/>
  <rect x="144" y="136" width="8" height="8" fill="#f0af2e"/>
  <rect x="120" y="144" width="8" height="8" fill="#f0af2e"/>
  <rect x="144" y="144" width="8" height="8" fill="#f0af2e"/>
</svg>